<svg width="413" height="276" viewBox="0 0 413 276" fill="none" xmlns="http://www.w3.org/2000/svg">
<path d="M26.184 123.792C26.184 123.792 12.5159 118.914 17.0711 105.362C21.6262 91.8108 42.5829 91.473 43.6534 105.763C44.1413 112.277 40.4474 128.047 26.184 123.792Z" fill="#E1EDFF"/>
<path d="M50.2741 239.155H356.505C372.269 228.521 383.806 210.566 386.372 187.945C390.918 147.873 370.654 120.819 344.592 109.836C318.53 98.8527 339.631 48.5003 291.632 29.0826C253.714 13.7437 206.626 30.9572 187.864 57.8314C166.621 88.2576 136.968 62.0889 101.749 64.7396C66.5304 67.3909 47.7102 98.8797 57.1415 135.292C65.4186 167.249 18.1785 154.98 21.4214 199.536C22.8383 219.007 36.7723 231.522 50.2741 239.155Z" fill="#E1EDFF"/>
<path d="M343.02 76.4244V57.3147C343.02 50.5262 337.53 45.0228 330.758 45.0228H285.789C279.017 45.0228 273.527 50.5262 273.527 57.3147V76.4244H343.02Z" fill="#92A7FF"/>
<path d="M273.527 70.6179V87.9088C273.527 94.6973 279.017 100.201 285.789 100.201H330.758C337.53 100.201 343.02 94.6973 343.02 87.9088V70.6179H273.527Z" fill="#738BEF"/>
<path d="M321.837 55.3876C318.11 52.6602 313.854 54.3388 312.737 54.898C311.99 55.2728 310.661 55.6973 309.844 55.6973C309.026 55.6973 307.698 55.2723 306.95 54.898C305.834 54.3383 301.578 52.6597 297.85 55.3876C294.123 58.1156 293.484 63.9906 296.345 69.6557C298.684 74.2892 298.856 79.0977 298.996 82.3849C299.135 85.672 299.973 91.8969 303.182 91.4073C306.391 90.9177 306.88 86.5116 307.159 82.0354C307.355 78.8946 308.807 77.1447 309.843 77.1447C310.879 77.1447 312.331 78.8951 312.527 82.0354C312.806 86.5116 313.295 90.9182 316.504 91.4073C319.713 91.8969 320.551 85.672 320.69 82.3849C320.829 79.0977 321.002 74.2892 323.342 69.6557C326.203 63.99 325.565 58.1151 321.837 55.3876Z" fill="#C3D1FC"/>
<path d="M330.758 100.201H285.789C279.017 100.201 273.527 94.6974 273.527 87.9089V57.3154C273.527 50.5269 279.017 45.0234 285.789 45.0234H330.758C337.53 45.0234 343.02 50.5269 343.02 57.3154V87.9089C343.02 94.6974 337.53 100.201 330.758 100.201Z" stroke="#738BEF" stroke-width="3" stroke-miterlimit="10"/>
<path d="M84.9926 138.145H141.618C142.264 138.145 142.893 138.218 143.5 138.35V107.527C143.225 107.554 142.946 107.569 142.664 107.569H83.9463C83.6638 107.569 83.3852 107.554 83.1099 107.527V138.35C83.7172 138.218 84.3461 138.145 84.9926 138.145Z" fill="#92A7FF"/>
<path d="M123.964 70.4634H102.647C99.4758 70.4634 96.9053 67.8866 96.9053 64.7082V46.1047C96.9053 42.9263 99.4758 40.3495 102.647 40.3495H123.964C127.135 40.3495 129.706 42.9263 129.706 46.1047V64.7082C129.706 67.8866 127.135 70.4634 123.964 70.4634Z" fill="#92A7FF"/>
<path d="M101.299 67.7238V53.6909" stroke="#738BEF" stroke-miterlimit="10" stroke-linecap="round" stroke-linejoin="round"/>
<path d="M106.101 67.7238V53.6909" stroke="#738BEF" stroke-miterlimit="10" stroke-linecap="round" stroke-linejoin="round"/>
<path d="M110.904 67.7238V53.6909" stroke="#738BEF" stroke-miterlimit="10" stroke-linecap="round" stroke-linejoin="round"/>
<path d="M115.707 67.7238V53.6909" stroke="#738BEF" stroke-miterlimit="10" stroke-linecap="round" stroke-linejoin="round"/>
<path d="M120.509 67.7238V53.6909" stroke="#738BEF" stroke-miterlimit="10" stroke-linecap="round" stroke-linejoin="round"/>
<path d="M125.312 67.7238V53.6909" stroke="#738BEF" stroke-miterlimit="10" stroke-linecap="round" stroke-linejoin="round"/>
<path d="M129.759 71.5083H96.8514C95.1454 71.5083 93.7627 70.1222 93.7627 68.4121C93.7627 66.7021 95.1454 65.316 96.8514 65.316H129.759C131.465 65.316 132.848 66.7021 132.848 68.4121C132.848 70.1222 131.465 71.5083 129.759 71.5083Z" fill="#92A7FF"/>
<path d="M127.483 69.3113H99.1272V75.6108H127.483V69.3113Z" stroke="#92A7FF" stroke-miterlimit="10"/>
<path d="M142.664 107.569H83.9464C79.3792 107.569 75.6765 103.857 75.6765 99.2789V83.9007C75.6765 79.3224 79.3792 75.6108 83.9464 75.6108H142.664C147.231 75.6108 150.934 79.3224 150.934 83.9007V99.2789C150.934 103.858 147.232 107.569 142.664 107.569Z" stroke="#92A7FF" stroke-miterlimit="10"/>
<path d="M137.793 233.593H88.8175C81.8142 233.593 76.1362 227.902 76.1362 220.881V150.856C76.1362 143.836 81.8136 138.144 88.8175 138.144H137.793C144.797 138.144 150.475 143.835 150.475 150.856V220.881C150.474 227.901 144.797 233.593 137.793 233.593Z" stroke="#92A7FF" stroke-miterlimit="10"/>
<path d="M129.073 133.228H97.5374C95.7913 133.228 94.3755 131.809 94.3755 130.058V115.348C94.3755 113.597 95.7913 112.178 97.5374 112.178H129.073C130.819 112.178 132.235 113.597 132.235 115.348V130.058C132.235 131.809 130.819 133.228 129.073 133.228Z" fill="#C3D1FC" stroke="#92A7FF" stroke-miterlimit="10"/>
<path d="M352.365 237.768C348.886 235.282 348.543 219.509 362.803 216.316C370.086 214.686 368.92 211.031 370.391 206.33C371.862 201.63 373.709 201.283 377.878 200.646C382.047 200.008 378.916 194.312 383.865 191.013C388.813 187.714 395.455 187.461 397.929 194.671C400.024 200.775 394.09 203.463 392.88 206.302C391.669 209.141 395.19 212.974 390.897 217.254C386.604 221.535 382.011 218.312 381.955 222.846C381.899 227.379 379.889 235.639 375.53 237.338C370.138 239.44 355.112 239.731 352.365 237.768Z" stroke="#92A7FF" stroke-miterlimit="10"/>
<path d="M357.55 239.206C359.45 236.936 361.423 234.725 363.326 232.457C368.06 226.816 372.681 221.078 377.194 215.257C380.491 211.004 383.73 206.705 386.902 202.357C387.217 201.927 386.5 201.513 386.189 201.939C380.86 209.242 375.345 216.409 369.671 223.446C366.156 227.805 362.583 232.118 358.928 236.36C358.277 237.116 357.606 237.856 356.966 238.62C356.626 239.026 357.207 239.614 357.55 239.206Z" fill="#92A7FF"/>
<path d="M369.926 209.818C369.545 206.404 369.051 203.058 368.769 199.947C367.623 187.298 383.594 192.952 389.956 176.721C396.317 160.49 380.744 154.591 388.068 147.799C395.392 141.007 400.147 120.445 386.708 113.655C373.452 106.957 360.301 117.968 358.602 130.505C357.291 140.175 363.231 146.927 347.773 154.016C332.315 161.104 334.703 169.907 337.879 186.742C341.054 203.578 330.608 197.405 322.489 211.616C316.056 222.877 324.981 234.87 329.012 239.155L360.408 239.089" stroke="#92A7FF" stroke-miterlimit="10"/>
<path d="M334.854 239.2C335.196 238.347 335.538 237.494 335.881 236.641C336.83 234.28 337.781 231.92 338.732 229.56C340.154 226.031 341.58 222.503 343.007 218.976C344.782 214.588 346.56 210.203 348.342 205.819C350.345 200.89 352.353 195.964 354.366 191.041C356.482 185.865 358.605 180.692 360.736 175.523C362.82 170.465 364.913 165.411 367.019 160.363C368.959 155.71 370.91 151.062 372.881 146.422C374.542 142.513 376.216 138.609 377.923 134.719C379.185 131.846 380.458 128.975 381.802 126.139C382.038 125.641 382.277 125.144 382.52 124.649C382.754 124.173 382.041 123.753 381.807 124.231C380.567 126.757 379.415 129.326 378.272 131.897C376.645 135.558 375.057 139.237 373.482 142.921C371.563 147.41 369.667 151.908 367.782 156.411C365.691 161.406 363.613 166.408 361.545 171.414C359.416 176.565 357.296 181.721 355.183 186.878C353.122 191.912 351.066 196.947 349.016 201.986C347.156 206.555 345.3 211.127 343.448 215.699C341.922 219.469 340.397 223.239 338.876 227.009C337.794 229.692 336.713 232.374 335.634 235.058C335.132 236.305 334.566 237.545 334.124 238.815C334.104 238.871 334.08 238.925 334.057 238.98C333.859 239.474 334.658 239.689 334.854 239.2Z" fill="#92A7FF"/>
<path d="M364.012 167.465C370.149 167.095 376.288 166.724 382.425 166.353C383.28 166.302 384.134 166.25 384.989 166.199C385.517 166.167 385.521 165.339 384.989 165.371C378.851 165.741 372.713 166.112 366.575 166.483C365.72 166.535 364.866 166.586 364.012 166.637C363.483 166.669 363.48 167.497 364.012 167.465Z" fill="#92A7FF"/>
<path d="M342.831 219.617C347.663 219.024 352.496 218.43 357.329 217.837C358.011 217.753 358.693 217.67 359.375 217.586C359.896 217.522 359.902 216.693 359.375 216.758C354.542 217.351 349.71 217.945 344.877 218.538C344.195 218.622 343.513 218.705 342.831 218.789C342.31 218.853 342.303 219.682 342.831 219.617Z" fill="#92A7FF"/>
<path d="M340.853 162.292C342.242 165.693 343.63 169.094 345.018 172.495C347.231 177.916 349.443 183.337 351.656 188.758C352.163 190.002 352.672 191.247 353.179 192.491C353.378 192.978 354.177 192.765 353.976 192.271C352.588 188.87 351.199 185.469 349.811 182.067C347.598 176.646 345.386 171.225 343.173 165.804C342.666 164.56 342.157 163.315 341.65 162.071C341.451 161.585 340.652 161.798 340.853 162.292Z" fill="#92A7FF"/>
<path d="M371.132 127.735C370.106 129.38 368.319 130.004 367.142 129.129C365.965 128.254 365.842 126.212 366.868 124.567C367.894 122.922 369.68 122.298 370.857 123.173C372.035 124.047 372.158 126.09 371.132 127.735Z" stroke="#92A7FF" stroke-miterlimit="10"/>
<path d="M371.884 136.628C371.884 137.498 371.238 138.203 370.442 138.203C369.646 138.203 369 137.498 369 136.628C369 135.759 369.646 135.054 370.442 135.054C371.238 135.054 371.884 135.759 371.884 136.628Z" stroke="#92A7FF" stroke-miterlimit="10"/>
<path d="M382.342 177.232C382.342 178.922 381.087 180.291 379.539 180.291C377.991 180.291 376.737 178.922 376.737 177.232C376.737 175.543 377.992 174.173 379.539 174.173C381.087 174.174 382.342 175.543 382.342 177.232Z" stroke="#92A7FF" stroke-miterlimit="10"/>
<path d="M336.287 178.361C335.215 175.577 333.399 173.212 330.325 172.764C322.129 171.573 319.335 167.055 318.718 161.394C317.374 149.066 303.212 144.729 298.004 154.309C293.514 162.57 306.985 171.771 301.702 177.232C296.419 182.694 294.659 197.539 303.463 199.295C312.268 201.052 306.457 206.004 306.281 213.943C306.105 221.881 320.227 238.886 320.227 238.886" stroke="#92A7FF" stroke-miterlimit="10"/>
<path d="M301.383 150.566L325.854 206.882" stroke="#92A7FF" stroke-miterlimit="10" stroke-linecap="round" stroke-linejoin="round"/>
<path d="M319.38 172.304L315.451 182.941" stroke="#92A7FF" stroke-miterlimit="10" stroke-linecap="round" stroke-linejoin="round"/>
<path d="M304.749 193.761L319.933 193.255" stroke="#92A7FF" stroke-miterlimit="10" stroke-linecap="round" stroke-linejoin="round"/>
<path d="M64.9137 238.886C59.9098 239.025 37.7173 242.051 38.2724 226.142C38.5764 217.42 35.9095 217.733 30.8087 214.313C25.7078 210.894 25.8312 208.707 26.2783 203.824C26.7255 198.941 21.8702 201.306 18.6362 194.885C14.7672 187.204 19.4258 181.473 26.9435 180.094C34.4618 178.714 34.2432 186.844 37.2311 189.266C40.2196 191.69 44.3507 186.479 50.0919 193.544C53.8398 198.156 48.0203 208.678 53.5336 207.698" stroke="#92A7FF" stroke-miterlimit="10"/>
<path d="M53.9956 223.332C48.5628 215.972 42.9014 208.78 37.0423 201.756C34.9938 199.3 32.9205 196.866 30.8236 194.451C30.4739 194.049 29.8919 194.636 30.2393 195.037C36.8187 202.614 43.169 210.393 49.2522 218.376C50.609 220.157 51.9521 221.948 53.282 223.75C53.5948 224.174 54.3123 223.761 53.9956 223.332Z" fill="#92A7FF"/>
<path d="M41.9521 193.837C41.6811 197.9 41.4102 201.964 41.1393 206.027C41.1007 206.604 41.0622 207.18 41.0237 207.757C41.1613 207.619 41.299 207.481 41.4367 207.343C37.7152 207.652 33.9944 207.962 30.273 208.27C29.7471 208.314 29.7421 209.142 30.273 209.098C33.9944 208.789 37.7152 208.48 41.4367 208.171C41.6707 208.152 41.8337 207.997 41.8497 207.757C42.1206 203.694 42.3915 199.631 42.6624 195.568C42.701 194.991 42.7395 194.414 42.7781 193.837C42.8139 193.305 41.9873 193.307 41.9521 193.837Z" fill="#92A7FF"/>
<path d="M30.6436 137.386C21.3114 129.766 19.0807 106.229 32.376 99.0818C48.8156 90.2454 66.0244 103.921 68.1891 117.985C69.8593 128.833 62.2904 136.409 81.9872 144.361C101.684 152.313 98.6404 162.189 94.5947 181.075C90.5484 199.961 103.859 193.037 114.204 208.979C122.401 221.612 110.844 234.349 105.708 239.155L65.4567 239.106C64.1522 238.335 62.9005 237.474 61.7248 236.511C48.7137 225.85 53.8828 209.006 55.2325 195.888C56.6928 181.698 36.343 188.041 28.2371 169.832C20.1324 151.623 39.9757 145.005 30.6436 137.386Z" stroke="#92A7FF" stroke-miterlimit="10"/>
<path d="M98.4731 238.816C98.0282 237.802 97.5827 236.788 97.1367 235.774C95.9103 232.984 94.6818 230.196 93.4522 227.409C91.6069 223.225 89.7583 219.044 87.9064 214.863C85.6046 209.667 83.2979 204.472 80.9856 199.281C78.4002 193.475 75.8077 187.672 73.2074 181.873C70.4811 175.792 67.7454 169.716 64.9976 163.645C62.3026 157.691 59.5961 151.743 56.8708 145.804C54.3807 140.376 51.8752 134.956 49.341 129.549C47.2011 124.985 45.0431 120.429 42.8354 115.897C41.2264 112.595 39.6008 109.297 37.8706 106.056C37.5678 105.488 37.2605 104.922 36.9472 104.361C36.6878 103.895 35.9741 104.313 36.234 104.778C37.8304 107.641 39.2957 110.578 40.7484 113.515C42.8514 117.769 44.8966 122.052 46.9225 126.342C49.3988 131.587 51.8427 136.848 54.27 142.116C56.9661 147.967 59.6418 153.828 62.3042 159.694C65.051 165.745 67.7839 171.803 70.5075 177.864C73.1661 183.781 75.8154 189.702 78.4575 195.627C80.8562 201.005 83.2489 206.386 85.6366 211.769C87.6074 216.212 89.5744 220.658 91.538 225.104C92.9345 228.267 94.3294 231.432 95.722 234.596C96.3729 236.075 96.9731 237.59 97.6769 239.044C97.7072 239.107 97.7325 239.171 97.7606 239.235C97.9731 239.721 98.6851 239.3 98.4731 238.816Z" fill="#92A7FF"/>
<path d="M61.296 158.57C58.2822 158.41 55.2684 158.249 52.2546 158.089C47.455 157.834 42.6554 157.579 37.8558 157.323C36.7594 157.265 35.663 157.207 34.5666 157.148C34.0352 157.12 34.0369 157.948 34.5666 157.976C37.5804 158.136 40.5942 158.297 43.608 158.457C48.4076 158.712 53.2072 158.967 58.0069 159.223C59.1032 159.281 60.1996 159.339 61.296 159.398C61.8274 159.426 61.8257 158.598 61.296 158.57Z" fill="#92A7FF"/>
<path d="M88.2852 217.076C84.8887 216.709 81.4927 216.341 78.0962 215.974C72.7112 215.392 67.3263 214.81 61.9413 214.228C60.7029 214.094 59.4644 213.96 58.226 213.826C57.6979 213.769 57.7023 214.597 58.226 214.654C61.6225 215.021 65.0184 215.388 68.4149 215.755C73.7999 216.338 79.1849 216.919 84.5699 217.502C85.8083 217.635 87.0468 217.769 88.2852 217.903C88.8127 217.961 88.8089 217.132 88.2852 217.076Z" fill="#92A7FF"/>
<path d="M89.9407 153.312C88.1681 157.136 86.3955 160.96 84.6229 164.784C81.8018 170.869 78.9808 176.955 76.1602 183.04C75.5187 184.424 74.8772 185.808 74.2357 187.191C74.0132 187.672 74.7247 188.093 74.9488 187.609C76.7214 183.786 78.494 179.961 80.2666 176.137C83.0876 170.052 85.9087 163.967 88.7292 157.881C89.3707 156.497 90.0123 155.113 90.6538 153.729C90.8763 153.25 90.1648 152.828 89.9407 153.312Z" fill="#92A7FF"/>
<path d="M52.2232 114.877C53.5304 116.722 55.8063 117.423 57.3064 116.441C58.8064 115.46 58.9633 113.168 57.656 111.323C56.3487 109.478 54.0728 108.777 52.5728 109.759C51.0728 110.74 50.9164 113.031 52.2232 114.877Z" stroke="#92A7FF" stroke-miterlimit="10"/>
<path d="M51.2644 124.854C51.2644 125.829 52.0871 126.62 53.102 126.62C54.1169 126.62 54.9396 125.829 54.9396 124.854C54.9396 123.879 54.1169 123.088 53.102 123.088C52.0871 123.088 51.2644 123.879 51.2644 124.854Z" stroke="#92A7FF" stroke-miterlimit="10"/>
<path d="M37.9399 170.406C37.9399 172.301 39.5385 173.838 41.511 173.838C43.4835 173.838 45.0821 172.301 45.0821 170.406C45.0821 168.51 43.4835 166.974 41.511 166.974C39.5391 166.974 37.9399 168.51 37.9399 170.406Z" stroke="#92A7FF" stroke-miterlimit="10"/>
<path d="M155.105 192.636L144.528 204.816L137.729 197.909L146.92 185.946L155.105 192.636Z" fill="#933F1F"/>
<path d="M150.862 225.124L127.832 204.979L137.813 194.866L148.608 204.292L146.092 207.576L150.862 225.124Z" fill="#050048"/>
<path d="M158.153 198.345L142.902 185.636L153.32 163.585L158.933 133.379L178.319 135.926L173.279 172.578L158.153 198.345Z" fill="#79BBC8"/>
<path d="M173.279 172.578L158.153 198.345L142.902 185.636" stroke="#0F110E" stroke-miterlimit="10" stroke-linecap="round"/>
<path d="M178.155 215.04V198.958H167.949L168.263 216.05L178.155 215.04Z" fill="#933F1F"/>
<path d="M196.016 225.295L165.454 225.725L166.27 212.744L180.536 212.349L180.773 215.431L196.016 225.295Z" fill="#050048"/>
<path d="M158.134 134.899L162.883 202.183H183.105L186.707 133.857L158.134 134.899Z" fill="#79BBC8"/>
<path d="M158.134 134.899L162.883 202.183H183.105" stroke="#12120E" stroke-miterlimit="10" stroke-linecap="round"/>
<path d="M205.488 94.9357L199.157 90.3939C199.157 90.3939 202.395 85.2465 203.032 84.1607C203.67 83.0749 204.655 82.0835 205.789 82.7912C206.923 83.4983 209.737 87.264 209.08 88.4265C208.422 89.589 205.488 94.9357 205.488 94.9357Z" fill="#FCD7C8"/>
<path d="M173.571 88.5562L184.891 96.7457L198.966 87.9601L207.492 96.2991C207.492 96.2991 200.678 112.902 195.076 118.259C189.876 123.232 178.407 118.576 176.821 117.929C175.235 117.281 165.524 110.67 165.524 110.67L173.571 88.5562Z" fill="white" stroke="black" stroke-miterlimit="10"/>
<path d="M168.876 81.139L172.175 80.4457C172.175 80.4457 177 81.8522 180.197 90.5738C183.393 99.2954 189.158 111.911 190.432 141.531C191.705 171.15 191.369 173.155 191.369 173.155L144.025 170.247L156.455 100.328L167.324 81.1296L168.876 81.139Z" fill="white" stroke="black" stroke-miterlimit="10"/>
<path d="M180.989 89.1618C182.936 93.5601 184.768 99.4306 186.565 108.291C184.049 100.781 179.463 89.1988 172.518 82.6338C172.518 82.6338 172.421 81.3278 173.223 80.4446C174.61 80.8326 173.368 77.8706 175.354 80.683C175.958 81.5386 179.316 85.3817 180.989 89.1618Z" fill="#92A7FF" stroke="black" stroke-miterlimit="10"/>
<path d="M181.903 68.0577C182.183 68.9183 182.845 70.2823 183.489 70.9165C183.508 70.9353 183.528 70.9563 183.531 70.9833C183.533 71.0209 183.5 71.0501 183.469 71.0722C183.129 71.3173 182.765 71.5293 182.384 71.7043L181.795 71.9902L181.903 68.0577Z" fill="#FCD7C8"/>
<path d="M181.704 68.1129C182.01 69.0403 182.457 69.971 183.06 70.741C183.129 70.8288 183.2 70.9143 183.277 70.9949C183.288 71.0065 183.299 71.0181 183.31 71.0297C183.368 71.0987 183.367 71.0667 183.309 70.9342C183.293 70.9309 183.151 71.0418 183.135 71.0523C182.882 71.219 182.617 71.3664 182.343 71.4961C182.125 71.5999 181.909 71.7059 181.691 71.8113C181.795 71.8709 181.898 71.9306 182.002 71.9902C182.033 70.8442 182.065 69.6983 182.096 68.5529C182.1 68.3878 182.104 68.2228 182.109 68.0583C182.116 67.7917 181.703 67.7922 181.696 68.0583C181.664 69.2042 181.634 70.3496 181.602 71.4956C181.598 71.6606 181.593 71.8257 181.588 71.9902C181.584 72.1574 181.765 72.2342 181.899 72.169C182.158 72.0432 182.419 71.9212 182.677 71.7926C182.948 71.6573 183.209 71.5033 183.459 71.3316C183.569 71.256 183.701 71.182 183.729 71.0385C183.754 70.9099 183.683 70.8243 183.601 70.7366C183.248 70.3634 182.977 69.9191 182.737 69.4675C182.486 68.9978 182.267 68.5087 182.101 68.0025C182.019 67.7508 181.62 67.859 181.704 68.1129Z" fill="#12120E"/>
<path d="M177.787 61.9598L174.185 61.9614C171.791 61.9625 169.833 64.1992 169.834 66.9316L169.837 72.5273C169.837 72.6851 169.845 72.8408 169.858 72.9948C169.819 73.1599 169.796 73.331 169.796 73.5076L169.798 76.914V77.1039L169.8 80.5103C169.8 81.7462 170.81 82.7569 172.043 82.7569L173.471 82.7564C174.704 82.7558 175.712 81.744 175.712 80.5081L175.711 77.4936L177.793 77.4925C180.187 77.4914 182.145 75.2552 182.143 72.5223L182.141 66.9267C182.14 64.1932 180.18 61.9587 177.787 61.9598Z" fill="#FCD7C8"/>
<path d="M179.804 69.2312C179.994 69.6077 179.843 70.0664 179.468 70.2569C179.093 70.4473 178.634 70.2966 178.445 69.9207C178.255 69.5442 178.405 69.0855 178.78 68.8951C179.156 68.7046 179.614 68.8553 179.804 69.2312Z" fill="#010001"/>
<path d="M181.859 73.8449C181.806 73.8603 181.753 73.8736 181.698 73.8835C181.688 73.8852 181.678 73.8863 181.668 73.8885C181.716 73.8791 181.69 73.8857 181.679 73.8868C181.65 73.8896 181.622 73.8923 181.593 73.8929C181.552 73.894 181.513 73.8901 181.473 73.889C181.429 73.8879 181.512 73.8973 181.484 73.8907C181.474 73.8885 181.463 73.8874 181.453 73.8852C181.434 73.8813 181.414 73.8769 181.394 73.8714C181.376 73.8664 181.357 73.8603 181.339 73.8537C181.332 73.8509 181.325 73.8482 181.317 73.846C181.279 73.8333 181.354 73.8642 181.33 73.8515C181.296 73.8327 181.261 73.8173 181.228 73.7957C181.216 73.788 181.204 73.7792 181.192 73.7709C181.158 73.7488 181.23 73.804 181.2 73.777C181.195 73.772 181.189 73.7681 181.184 73.7632C181.157 73.74 181.131 73.7157 181.108 73.6898C181.096 73.6771 181.084 73.6638 181.073 73.65C181.068 73.6445 181.064 73.639 181.06 73.634C181.035 73.6048 181.084 73.6693 181.07 73.6467C181.051 73.6174 181.03 73.5904 181.012 73.5611C180.978 73.5059 180.949 73.448 180.922 73.3889C180.9 73.3414 180.94 73.4347 180.921 73.3856C180.916 73.374 180.911 73.3624 180.908 73.3508C180.897 73.3221 180.887 73.2923 180.877 73.2631C180.862 73.2156 180.849 73.1676 180.838 73.119C180.828 73.0804 180.821 73.0412 180.814 73.002C180.812 72.9909 180.811 72.9804 180.809 72.9694C180.81 72.9716 180.818 73.0406 180.815 73.0102C180.802 72.9032 180.728 72.7977 180.608 72.8032C180.507 72.8077 180.389 72.8949 180.402 73.0102C180.459 73.5214 180.724 74.0817 181.24 74.2567C181.474 74.3361 181.734 74.3124 181.968 74.2434C182.071 74.2131 182.147 74.0966 182.112 73.9889C182.079 73.8841 181.969 73.8123 181.859 73.8449Z" fill="#12120E"/>
<path d="M179.122 67.7652C178.94 67.8568 178.755 67.9446 178.567 68.0274C178.385 68.108 178.228 68.1731 178.029 68.2498C177.929 68.2885 177.848 68.3906 177.885 68.5043C177.916 68.6025 178.031 68.6909 178.139 68.6489C178.544 68.4921 178.942 68.3166 179.331 68.1223C179.428 68.0737 179.463 67.9286 179.405 67.8391C179.341 67.7398 179.226 67.7133 179.122 67.7652Z" fill="#12120E"/>
<path d="M171.696 58.3226C167.911 59.3615 162.829 61.1798 163.622 69.8539C163.622 69.8539 164.631 75.1299 169.797 76.4901L169.764 71.1279L170.477 70.5914L171.05 72.3076C171.05 72.3076 173.084 72.6702 174.274 69.4167C176.409 68.8399 179.56 67.748 182.283 64.9693C184.367 62.8419 182.946 59.2522 179.074 58.326C174.866 57.3208 173.713 57.769 171.696 58.3226Z" fill="#12120E"/>
<path d="M166.545 72.2926C166.637 73.8206 167.958 74.9842 169.494 74.8909C171.031 74.7976 172.203 73.4839 172.111 71.9554C172.019 70.4274 170.698 69.2638 169.161 69.3571C167.624 69.4504 166.453 70.7647 166.545 72.2926Z" fill="#FCD7C8"/>
<path d="M171.036 72.4064C171.039 71.696 170.657 70.9618 169.975 70.704C169.623 70.571 169.236 70.5848 168.872 70.6449C168.762 70.6632 168.7 70.8001 168.727 70.8994C168.759 71.0164 168.871 71.0623 168.981 71.044C169.267 70.9966 169.536 70.996 169.797 71.0794C169.826 71.0882 169.854 71.0987 169.881 71.1092C169.918 71.123 169.887 71.1114 169.88 71.1086C169.895 71.1153 169.911 71.1224 169.926 71.1301C169.975 71.1544 170.023 71.1815 170.069 71.2119C170.078 71.2179 170.146 71.2681 170.104 71.235C170.124 71.251 170.144 71.2676 170.163 71.2847C170.2 71.3178 170.235 71.3537 170.269 71.3912C170.285 71.4095 170.3 71.4288 170.316 71.4476C170.28 71.4039 170.328 71.4641 170.335 71.4757C170.362 71.5143 170.387 71.5546 170.41 71.596C170.432 71.6341 170.451 71.6728 170.47 71.7125C170.479 71.7329 170.497 71.7771 170.479 71.7307C170.488 71.755 170.498 71.7793 170.507 71.8041C170.558 71.9466 170.579 72.0906 170.612 72.2375C170.594 72.1558 170.614 72.2535 170.616 72.2783C170.618 72.3009 170.62 72.323 170.621 72.3457C170.622 72.3661 170.623 72.3865 170.623 72.4069C170.622 72.673 171.035 72.673 171.036 72.4064Z" fill="#12120E"/>
<path d="M178.17 71.7843C178.21 72.8231 177.402 73.698 176.365 73.7378C175.329 73.7775 174.456 72.9677 174.416 71.9283C174.377 70.8895 175.185 70.0145 176.222 69.9748C177.258 69.935 178.131 70.7454 178.17 71.7843Z" fill="#FFA6A6"/>
<path d="M188.062 112.757C188.062 112.757 182.604 96.0005 178.597 89.7011C174.59 83.4017 169.796 78.5573 169.796 78.5573L166.91 80.6831L176.08 91.6574L172.549 92.487L185.907 117.322L188.062 112.757Z" fill="white"/>
<path d="M184.821 114.754L172.549 92.4876L176.08 91.6579L169.884 83.8847L166.91 80.6836L169.328 77.8436C169.328 77.8436 176.675 85.8669 179.903 91.9273C183.132 97.9877 188.782 114.154 188.782 114.154" stroke="#12120E" stroke-miterlimit="10" stroke-linecap="round"/>
<path d="M216.973 91.293C217.813 90.0643 217.48 88.4751 219.371 87.2138C221.262 85.9524 221.596 85.5373 222.388 84.0249C223.181 82.5124 223.125 80.9022 225.228 80.1057C227.331 79.3091 227.625 78.2752 227.836 77.2226C228.047 76.1704 228.484 75.2017 229.981 74.5525C231.479 73.9028 232.523 72.0564 232.964 70.9938C233.405 69.9312 233.798 68.586 235.032 68.0654C236.265 67.5449 236.95 66.4839 237.512 65.1768C237.724 64.6839 238.015 64.3179 238.295 64.0529L231.056 58.2095L208.367 86.4542L215.747 92.4119C216.182 92.2828 216.513 91.9643 216.973 91.293Z" fill="#F2B4C9" stroke="#12120E" stroke-miterlimit="10" stroke-linecap="round"/>
<path d="M237.136 65.9667L234.093 63.5098" stroke="#12120E" stroke-miterlimit="10" stroke-linecap="round"/>
<path d="M231.476 63.4877L236.118 67.2346" stroke="#12120E" stroke-miterlimit="10" stroke-linecap="round"/>
<path d="M232.18 65.8906L234.857 68.0516" stroke="#12120E" stroke-miterlimit="10" stroke-linecap="round"/>
<path d="M228.549 68.3149L232.614 71.596" stroke="#12120E" stroke-miterlimit="10" stroke-linecap="round"/>
<path d="M231.704 73.1361L228.729 70.7338" stroke="#12120E" stroke-miterlimit="10" stroke-linecap="round"/>
<path d="M224.387 75.592L227.439 78.0561" stroke="#12120E" stroke-miterlimit="10" stroke-linecap="round"/>
<path d="M224.226 72.9683L228.088 76.086" stroke="#12120E" stroke-miterlimit="10" stroke-linecap="round"/>
<path d="M221.795 75.9944L226.136 79.4985" stroke="#12120E" stroke-miterlimit="10" stroke-linecap="round"/>
<path d="M219.986 80.4772L222.658 82.6338" stroke="#12120E" stroke-miterlimit="10" stroke-linecap="round"/>
<path d="M217.094 80.1962L221.946 84.1126" stroke="#12120E" stroke-miterlimit="10" stroke-linecap="round"/>
<path d="M218.635 83.2984L221.333 85.4766" stroke="#12120E" stroke-miterlimit="10" stroke-linecap="round"/>
<path d="M215.292 85.7355L218.342 88.1968" stroke="#12120E" stroke-miterlimit="10" stroke-linecap="round"/>
<path d="M214.857 87.7144L217.402 89.7684" stroke="#12120E" stroke-miterlimit="10" stroke-linecap="round"/>
<path d="M231.554 55.6763C228.754 53.4159 224.655 53.8586 222.4 56.6661L143.045 155.084C141.389 157.145 142.124 160.493 144.686 162.561L146.276 163.845C148.838 165.913 152.258 165.918 153.913 163.857L199.378 107.263C199.648 106.927 199.872 106.556 200.047 106.156L204.254 92.4186L231.816 58.1085C232.414 57.3644 232.296 56.2753 231.554 55.6763Z" fill="#3B55F1" stroke="#12120E" stroke-miterlimit="10"/>
<path d="M163.864 115.479C163.864 115.479 170.58 117.085 173.148 117.146C175.717 117.207 179.896 116.41 180.304 117.493C180.711 118.576 177.613 118.95 177.613 118.95C177.613 118.95 182.16 119.189 182.679 120.068C183.199 120.947 182.654 121.507 180.765 121.433C180.765 121.433 183.017 121.58 183.016 122.704C183.015 123.828 180.706 123.256 179.924 123.194C179.924 123.194 182.711 123.409 182.679 124.558C182.648 125.708 179.019 124.894 179.019 124.894C179.019 124.894 182.016 125.136 181.934 126.178C181.853 127.22 178.183 127.166 174.615 126.447C171.048 125.728 161.825 123.194 161.825 123.194L163.864 115.479Z" fill="#FCD7C8"/>
<path d="M181.16 125.004L176.878 124.559" stroke="#12120E" stroke-miterlimit="10" stroke-linecap="round"/>
<path d="M181.527 123.379L176.878 122.781" stroke="#12120E" stroke-miterlimit="10" stroke-linecap="round"/>
<path d="M181.802 121.491C181.725 121.539 177.307 121.136 177.307 121.136" stroke="#12120E" stroke-miterlimit="10" stroke-linecap="round"/>
<path d="M170.915 95.5678L166.269 86.663L168.406 83.1092L166.689 80.6837C166.689 80.6837 160.374 82.6047 157.242 84.6918C147.934 90.8946 137.777 102.591 138.212 113.414C138.384 117.674 139.817 120.06 142.014 121.974C145.134 124.695 149.841 126.002 155.065 126.415C160.334 126.831 164.863 126.483 164.863 126.483L167.367 115.787L158.134 110.879C163.879 98.6491 170.915 95.5678 170.915 95.5678Z" fill="white"/>
<path d="M154.003 108.683L167.368 115.785L164.864 126.482C164.864 126.482 158.946 126.976 147.739 125.353C147.739 125.353 136.211 121.797 138.515 110.775C140.818 99.753 148.417 91.7705 151.56 88.9261C157.753 83.3216 164.65 80.9717 166.91 80.683" stroke="#12120E" stroke-miterlimit="10" stroke-linecap="round"/>
<path d="M158.134 110.879C158.134 110.879 161.107 105.45 164.371 101.039C164.371 101.039 166.59 98.1687 167.58 97.2706" stroke="#12120E" stroke-miterlimit="10" stroke-linecap="round"/>
<path d="M207.44 88.745C207.44 88.745 204.503 83.9012 204.251 82.8999C203.999 81.8985 204.433 81.06 205.302 81.7473C205.302 81.7473 204.351 80.7095 204.647 80.3259C204.944 79.9422 205.712 79.9075 206.836 80.9171C206.836 80.9171 205.227 79.658 205.605 78.9006C205.983 78.1433 207.52 78.8515 208.53 79.6806C208.53 79.6806 206.201 78.061 207.524 77.7707C208.847 77.4803 212.14 79.4758 212.76 80.7344C213.38 81.9929 211.814 84.1501 211.637 85.8012C211.46 87.4522 210.305 88.5435 209.498 89.228C208.69 89.913 207.155 91.5193 205.859 94.2595L205.27 91.9836L207.44 88.745Z" fill="#FCD7C8"/>
<path d="M209.274 85.6063C207.964 84.064 206.577 82.5885 205.119 81.1859C204.864 80.9397 204.473 81.3294 204.73 81.5762C206.188 82.9788 207.575 84.4537 208.885 85.9966C209.114 86.2676 209.503 85.8751 209.274 85.6063Z" fill="#0F110E"/>
<path d="M210.458 83.9122C208.909 82.3633 207.273 80.906 205.557 79.5459C205.282 79.3278 204.889 79.7159 205.168 79.9361C206.884 81.2957 208.521 82.7535 210.069 84.3024C210.32 84.5536 210.709 84.1633 210.458 83.9122Z" fill="#0F110E"/>
<path d="M211.25 81.6104C209.759 80.4098 208.238 79.2478 206.687 78.1267C206.399 77.9186 206.124 78.3972 206.409 78.6031C207.921 79.6966 209.406 80.8293 210.86 82.0001C211.134 82.2214 211.526 81.8334 211.25 81.6104Z" fill="#0F110E"/>
<path d="M322.454 220.905L312.638 150.116C311.577 142.462 305.526 136.801 298.406 136.801H228.162H191.666H121.421C114.301 136.801 108.251 142.462 107.189 150.116L97.3732 220.905C96.061 230.369 102.802 238.886 111.606 238.886H188.205H231.623H308.222C317.026 238.886 323.767 230.369 322.454 220.905Z" fill="#F2B4C9"/>
<path d="M86.6809 192.785C88.562 192.094 87.6793 192.387 86.6809 192.785Z" fill="#EED0DB"/>
<path d="M314.164 161.117C311.563 163.13 308.892 165.037 306.152 166.82C302.895 168.94 299.546 170.891 296.123 172.673C296.015 172.73 295.631 172.931 295.356 173.076C295.216 173.142 295.086 173.204 295.048 173.22C294.204 173.573 293.36 173.926 292.51 174.264C290.684 174.991 288.842 175.67 286.987 176.3C283.381 177.526 279.76 178.745 276.101 179.771C274.327 180.268 272.542 180.722 270.749 181.132C270.503 181.188 269.936 181.394 269.378 181.558C269.255 181.57 269.032 181.595 268.669 181.639C268.156 181.702 267.645 181.765 267.133 181.822C259.162 182.716 250.908 183.181 242.902 182.852C240.571 182.756 238.254 182.545 235.935 182.289C235.431 182.128 234.779 182.124 234.285 182.033C233.064 181.809 231.84 181.569 230.632 181.275C225.62 180.054 220.737 177.827 216.016 175.668C217.156 176.191 218.295 176.714 219.435 177.237C208.304 172.073 196.97 167.376 185.548 163.019C175.109 159.037 164.506 155.539 153.628 153.279C138.559 150.149 122.367 148.688 106.997 151.507L102.086 186.922C106.193 185.77 110.367 184.874 114.531 184.176C123.286 183.111 132.068 183.289 140.818 184.392C153.927 186.54 166.728 190.494 179.291 195.043C185.842 197.415 192.332 199.971 198.834 202.497C205.424 205.057 212.209 206.885 219.129 208.059C220.703 208.326 222.284 208.53 223.861 208.77C224.012 208.801 224.243 208.847 224.588 208.913C226.952 209.364 229.361 209.656 231.751 209.929C235.454 210.353 239.181 210.518 242.903 210.464C250.267 210.357 257.737 209.581 264.877 207.596C277.342 204.131 289.666 199.422 300.738 192.227C306.28 188.627 311.728 184.951 316.884 180.73L314.164 161.117ZM235.455 182.238C233.429 182.009 235.082 182.148 235.828 182.278C235.704 182.264 235.579 182.252 235.455 182.238ZM268.049 181.715C268.09 181.748 268.844 181.654 269.25 181.594C268.713 181.746 268.211 181.845 268.049 181.715Z" fill="#EED0DB"/>
<path d="M299.276 82.4197C286.732 73.2405 272.41 78.8891 268.653 80.7719C266.138 82.0322 261.67 83.4624 258.917 83.4624C256.165 83.4624 251.696 82.0327 249.181 80.7719C245.424 78.8891 231.102 73.2405 218.558 82.4197C206.014 91.5989 203.866 111.369 213.492 130.433C221.365 146.025 221.945 162.207 222.414 173.269C222.884 184.331 225.701 205.278 236.502 203.631C247.302 201.983 248.946 187.156 249.885 172.092C250.544 161.523 255.43 155.634 258.917 155.634C262.404 155.634 267.29 161.523 267.948 172.092C268.888 187.155 270.531 201.983 281.332 203.631C292.132 205.278 294.95 184.331 295.419 173.269C295.889 162.207 296.468 146.025 304.341 130.433C313.968 111.369 311.82 91.5989 299.276 82.4197Z" fill="white" stroke="black" stroke-miterlimit="10"/>
<path d="M122.468 134.811L130.862 184.06H143.499H154.987H167.624L176.018 134.811H122.468Z" fill="#738BEF" stroke="black" stroke-miterlimit="10"/>
<path d="M173.15 133.52H125.335C123.308 133.52 121.664 131.872 121.664 129.84V126.506C121.664 124.473 123.308 122.826 125.335 122.826H173.15C175.178 122.826 176.822 124.473 176.822 126.506V129.84C176.822 131.872 175.178 133.52 173.15 133.52Z" fill="#738BEF" stroke="black" stroke-miterlimit="10"/>
<path d="M181.795 136.811H116.691C114.878 136.811 113.408 135.338 113.408 133.52C113.408 131.702 114.878 130.229 116.691 130.229H181.795C183.609 130.229 185.078 131.702 185.078 133.52C185.078 135.338 183.608 136.811 181.795 136.811Z" fill="#738BEF" stroke="black" stroke-miterlimit="10"/>
<path d="M170.668 178.659H127.818C127.04 178.659 126.41 178.027 126.41 177.247C126.41 176.467 127.04 175.835 127.818 175.835H170.668C171.446 175.835 172.076 176.467 172.076 177.247C172.076 178.027 171.445 178.659 170.668 178.659Z" fill="#738BEF" stroke="black" stroke-miterlimit="10"/>
<path d="M171.633 171.527H126.854C126.076 171.527 125.445 170.895 125.445 170.115C125.445 169.335 126.076 168.703 126.854 168.703H171.633C172.411 168.703 173.041 169.335 173.041 170.115C173.041 170.895 172.411 171.527 171.633 171.527Z" fill="#738BEF" stroke="black" stroke-miterlimit="10"/>
<path d="M172.695 164.396H125.791C125.013 164.396 124.383 163.764 124.383 162.984C124.383 162.204 125.013 161.572 125.791 161.572H172.695C173.473 161.572 174.104 162.204 174.104 162.984C174.104 163.763 173.473 164.396 172.695 164.396Z" fill="#738BEF" stroke="black" stroke-miterlimit="10"/>
<path d="M173.917 157.265H124.569C123.791 157.265 123.16 156.633 123.16 155.853C123.16 155.073 123.791 154.441 124.569 154.441H173.917C174.695 154.441 175.326 155.073 175.326 155.853C175.326 156.632 174.695 157.265 173.917 157.265Z" fill="#738BEF" stroke="black" stroke-miterlimit="10"/>
<path d="M175.561 150.133H122.925C122.147 150.133 121.517 149.501 121.517 148.721C121.517 147.941 122.147 147.309 122.925 147.309H175.561C176.339 147.309 176.97 147.941 176.97 148.721C176.97 149.501 176.339 150.133 175.561 150.133Z" fill="#738BEF" stroke="black" stroke-miterlimit="10"/>
<path d="M176.789 143.002H121.698C120.92 143.002 120.289 142.37 120.289 141.59C120.289 140.81 120.92 140.178 121.698 140.178H176.789C177.567 140.178 178.197 140.81 178.197 141.59C178.197 142.37 177.566 143.002 176.789 143.002Z" fill="#738BEF" stroke="black" stroke-miterlimit="10"/>
<path d="M322.117 95.4777L325.05 101.231L330.617 104.489L324.877 107.43L321.627 113.01L318.694 107.256L313.127 103.998L318.867 101.058L322.117 95.4777Z" fill="white"/>
<path d="M206.714 127.747L208.697 131.636L212.459 133.838L208.58 135.826L206.383 139.597L204.4 135.709L200.637 133.507L204.517 131.519L206.714 127.747Z" fill="white"/>
<path d="M315.492 86.9013L316.939 89.7397L319.684 91.3466L316.853 92.7972L315.25 95.5495L313.803 92.7117L311.058 91.1042L313.889 89.6541L315.492 86.9013Z" fill="white"/>
<path d="M215.068 79.0105C215.005 80.4528 213.787 81.5706 212.347 81.5072C210.909 81.4437 209.793 80.2227 209.857 78.7797C209.92 77.3373 211.139 76.2196 212.578 76.283C214.017 76.3465 215.132 77.5675 215.068 79.0105Z" fill="white" stroke="#92A7FF" stroke-miterlimit="10"/>
<path d="M224.446 73.1731C223.714 73.1405 223.094 73.7091 223.062 74.4432C223.029 75.1768 223.597 75.7978 224.329 75.8304C225.061 75.863 225.68 75.2944 225.713 74.5608C225.745 73.8267 225.178 73.2051 224.446 73.1731Z" fill="white" stroke="#92A7FF" stroke-miterlimit="10"/>
<path d="M233.397 82.1779C231.467 82.0923 229.832 83.5921 229.747 85.5274C229.662 87.4627 231.158 89.1011 233.089 89.1866C235.02 89.2722 236.654 87.7724 236.739 85.8371C236.824 83.9018 235.328 82.2634 233.397 82.1779Z" fill="white" stroke="#92A7FF" stroke-miterlimit="10"/>
<path d="M239.026 75.8078C238.03 75.7636 237.15 76.3062 236.696 77.1249C236.467 76.293 235.734 75.6621 234.827 75.6218C233.702 75.5721 232.749 76.4465 232.699 77.5753C232.648 78.7041 233.521 79.6591 234.647 79.7088C234.653 79.7093 234.658 79.7077 234.664 79.7077C234.656 79.764 234.642 79.8186 234.64 79.8766C234.597 80.8349 235.338 81.6463 236.294 81.6888C237.01 81.7203 237.642 81.3123 237.934 80.704C238.203 80.8172 238.493 80.8934 238.801 80.9072C240.206 80.9695 241.395 79.8782 241.457 78.4701C241.52 77.0619 240.431 75.8696 239.026 75.8078Z" fill="white" stroke="#92A7FF" stroke-miterlimit="10" stroke-linecap="round" stroke-linejoin="round"/>
<path d="M235.237 70.1183C235.194 71.0932 234.37 71.8488 233.397 71.8058C232.425 71.7627 231.671 70.9375 231.714 69.9621C231.757 68.9873 232.58 68.2316 233.553 68.2746C234.526 68.3182 235.279 69.1435 235.237 70.1183Z" fill="white" stroke="#92A7FF" stroke-miterlimit="10"/>
<path d="M249.277 85.8928C252.13 85.8928 254.443 83.5742 254.443 80.714C254.443 77.8537 252.13 75.5351 249.277 75.5351C246.424 75.5351 244.111 77.8537 244.111 80.714C244.111 83.5742 246.424 85.8928 249.277 85.8928Z" fill="white" stroke="#92A7FF" stroke-miterlimit="10"/>
<path d="M244.127 91.2969C244.088 92.1906 243.333 92.8828 242.442 92.8436C241.55 92.8044 240.859 92.0476 240.899 91.1539C240.938 90.2603 241.693 89.568 242.584 89.6072C243.476 89.6464 244.167 90.4032 244.127 91.2969Z" fill="white" stroke="#92A7FF" stroke-miterlimit="10"/>
<path d="M229.588 98.2808C230.242 95.3486 228.582 92.4423 225.824 91.467C226.118 91.1082 226.339 90.6803 226.447 90.1957C226.546 89.748 226.54 89.302 226.45 88.8808C227.727 88.1886 228.711 86.9709 229.052 85.4391C229.677 82.6327 227.915 79.8501 225.116 79.2236C223.381 78.835 221.655 79.3677 220.444 80.496C220.367 80.4684 220.292 80.4363 220.209 80.4176C219.096 80.1686 217.994 80.8647 217.733 81.9737C217.401 81.8351 217.056 81.7181 216.693 81.6369C213.351 80.8884 210.036 82.9982 209.289 86.3488C208.956 87.8442 209.193 89.3324 209.852 90.5904C208.188 91.043 206.823 92.3794 206.421 94.1839C206.141 95.438 206.381 96.685 206.993 97.7062C206.091 98.0766 205.377 98.8671 205.148 99.8938C204.777 101.561 205.824 103.214 207.486 103.586C207.74 103.643 207.993 103.663 208.242 103.656C208.405 106.938 210.717 109.842 214.072 110.593C218.101 111.495 222.096 108.952 222.996 104.913C223.153 104.212 223.199 103.513 223.158 102.83C226.117 103.196 228.925 101.257 229.588 98.2808Z" fill="white" stroke="#92A7FF" stroke-miterlimit="10"/>
<path d="M230.602 104.762C230.565 105.616 229.844 106.277 228.993 106.239C228.142 106.201 227.483 105.479 227.52 104.626C227.558 103.773 228.278 103.112 229.129 103.149C229.98 103.187 230.64 103.909 230.602 104.762Z" fill="white" stroke="#92A7FF" stroke-miterlimit="10"/>
<path d="M205.334 109.614C205.269 111.092 204.021 112.238 202.546 112.172C201.072 112.107 199.929 110.856 199.994 109.378C200.059 107.899 201.307 106.754 202.782 106.819C204.257 106.884 205.4 108.136 205.334 109.614Z" fill="white" stroke="#92A7FF" stroke-miterlimit="10"/>
<path d="M14.6267 239.155H396.047" stroke="#010001" stroke-miterlimit="10" stroke-linecap="round" stroke-linejoin="round"/>
<path d="M173.544 191.906C173.544 191.906 217.24 200.491 202.383 241.49C202.383 241.49 159.037 239.037 173.544 191.906Z" fill="#92A7FF" stroke="#3B55F1" stroke-miterlimit="10" stroke-linecap="round" stroke-linejoin="round"/>
<path d="M173.544 191.906L202.384 241.491" stroke="#3B55F1" stroke-width="0.75" stroke-miterlimit="10" stroke-linecap="round" stroke-linejoin="round"/>
<path d="M171.198 201.882H179.346L182.044 194.642" stroke="#3B55F1" stroke-width="0.75" stroke-miterlimit="10" stroke-linecap="round" stroke-linejoin="round"/>
<path d="M170.577 209.837L183.047 208.245L189.168 198.262" stroke="#3B55F1" stroke-width="0.75" stroke-miterlimit="10" stroke-linecap="round" stroke-linejoin="round"/>
<path d="M171.422 217.564L187.517 215.93L196.576 204.049" stroke="#3B55F1" stroke-width="0.75" stroke-miterlimit="10" stroke-linecap="round" stroke-linejoin="round"/>
<path d="M174.499 225.576L191.944 223.542L201.958 211.216" stroke="#3B55F1" stroke-width="0.75" stroke-miterlimit="10" stroke-linecap="round" stroke-linejoin="round"/>
<path d="M180.77 233.01L196.576 231.506L204.87 219.361" stroke="#3B55F1" stroke-width="0.75" stroke-miterlimit="10" stroke-linecap="round" stroke-linejoin="round"/>
<path d="M189.768 238.369L200.715 238.622L205.184 230.151" stroke="#3B55F1" stroke-width="0.75" stroke-miterlimit="10" stroke-linecap="round" stroke-linejoin="round"/>
<path d="M290.69 208.378C290.69 208.378 319.87 214.111 309.949 241.491C309.949 241.491 281.002 239.852 290.69 208.378Z" fill="#92A7FF" stroke="#3B55F1" stroke-miterlimit="10" stroke-linecap="round" stroke-linejoin="round"/>
<path d="M290.69 208.378L309.949 241.491" stroke="#3B55F1" stroke-width="0.75" stroke-miterlimit="10" stroke-linecap="round" stroke-linejoin="round"/>
<path d="M289.124 215.04H294.564L296.366 210.205" stroke="#3B55F1" stroke-width="0.75" stroke-miterlimit="10" stroke-linecap="round" stroke-linejoin="round"/>
<path d="M288.708 220.352L297.036 219.29L301.123 212.623" stroke="#3B55F1" stroke-width="0.75" stroke-miterlimit="10" stroke-linecap="round" stroke-linejoin="round"/>
<path d="M289.273 225.512L300.021 224.422L306.071 216.488" stroke="#3B55F1" stroke-width="0.75" stroke-miterlimit="10" stroke-linecap="round" stroke-linejoin="round"/>
<path d="M291.327 230.863L302.977 229.505L309.665 221.273" stroke="#3B55F1" stroke-width="0.75" stroke-miterlimit="10" stroke-linecap="round" stroke-linejoin="round"/>
<path d="M295.515 235.827L306.071 234.823L311.61 226.712" stroke="#3B55F1" stroke-width="0.75" stroke-miterlimit="10" stroke-linecap="round" stroke-linejoin="round"/>
<path d="M301.524 239.406L308.835 239.575L311.819 233.918" stroke="#3B55F1" stroke-width="0.75" stroke-miterlimit="10" stroke-linecap="round" stroke-linejoin="round"/>
<path d="M227.145 174.801C227.145 174.801 253.266 223.558 202.366 241.49C202.366 241.49 170.651 197.889 227.145 174.801Z" fill="#92A7FF" stroke="#3B55F1" stroke-miterlimit="10" stroke-linecap="round" stroke-linejoin="round"/>
<path d="M227.144 174.801L202.365 241.491" stroke="#3B55F1" stroke-width="0.75" stroke-miterlimit="10" stroke-linecap="round" stroke-linejoin="round"/>
<path d="M215.757 180.385L222.159 188.218L231.206 185.124" stroke="#3B55F1" stroke-width="0.75" stroke-miterlimit="10" stroke-linecap="round" stroke-linejoin="round"/>
<path d="M207.657 186.038L218.979 196.777L233.34 194.816" stroke="#3B55F1" stroke-width="0.75" stroke-miterlimit="10" stroke-linecap="round" stroke-linejoin="round"/>
<path d="M200.929 192.923L215.139 207.113L233.625 206.487" stroke="#3B55F1" stroke-width="0.75" stroke-miterlimit="10" stroke-linecap="round" stroke-linejoin="round"/>
<path d="M195.68 202.177L211.335 217.351L230.997 217.292" stroke="#3B55F1" stroke-width="0.75" stroke-miterlimit="10" stroke-linecap="round" stroke-linejoin="round"/>
<path d="M193.496 214.047L207.355 228.061L225.493 226.492" stroke="#3B55F1" stroke-width="0.75" stroke-miterlimit="10" stroke-linecap="round" stroke-linejoin="round"/>
<path d="M195.439 226.908L203.798 237.633L215.415 235.273" stroke="#3B55F1" stroke-width="0.75" stroke-miterlimit="10" stroke-linecap="round" stroke-linejoin="round"/>
<path d="M82.249 245.613L81.1526 234.101H90.998L92.1428 246.675L82.249 245.613Z" fill="#87524E"/>
<path d="M80.8481 242.437L92.9501 242.25L93.6687 245.947L102.21 252.011L79.7859 251.919L80.8481 242.437Z" fill="#010001"/>
<path d="M77.037 236.138L95.2773 236.566C95.2773 236.566 90.9601 184.99 91.1099 174.834C91.2597 164.678 91.1099 162.014 91.1099 162.014L85.3818 159.28L66.7583 165.224L77.037 236.138Z" fill="#3B55F1"/>
<path d="M66.7583 165.223L77.037 236.138L95.2773 236.566" stroke="#12120E" stroke-miterlimit="10" stroke-linecap="round"/>
<path d="M39.726 222.588L32.4385 232.409L39.9028 237.553L48.9574 227.06L39.726 222.588Z" fill="#87524E"/>
<path d="M33.3141 228.913L42.7685 236.611L41.4926 239.545L45.0923 249.397L26.6819 236.565L33.3141 228.913Z" fill="#010001"/>
<path d="M72.8669 179.54C72.8669 179.54 76.4743 190.24 68.5684 204.488C60.6619 218.736 47.4118 230.602 47.4118 230.602L33.9353 220.571C33.9353 220.571 47.4525 200.097 51.1491 184.733C55.185 167.959 54.3744 162.982 54.3744 162.982L72.6136 169.148L72.8669 179.54Z" fill="#3B55F1"/>
<path d="M33.6396 220.351L47.4118 230.602C47.4118 230.602 60.9852 218.912 68.5684 204.488C75.9507 190.447 76.7293 165.823 76.7293 165.823" stroke="#12120E" stroke-miterlimit="10" stroke-linecap="round"/>
<path d="M82.9413 111.36C82.9413 111.36 90.6991 117.05 91.5213 122.817C92.3429 128.583 92.9524 173.419 92.9524 173.419L51.2697 173.412C51.2697 173.412 48.8953 140.498 55.9443 128.362C62.9934 116.226 75.172 110.775 75.172 110.775L82.9413 111.36Z" fill="#3B55F1" stroke="#12120E" stroke-miterlimit="10" stroke-linecap="round" stroke-linejoin="round"/>
<path d="M45.6308 146.65L55.246 138.122L55.7207 137.297C55.6629 137.193 55.632 137.134 55.632 137.134L60.2323 129.76L50.4618 121.551C34.8367 132.432 41.6572 142.205 45.1787 146.176C45.3131 146.327 45.4673 146.487 45.6308 146.65Z" fill="#87524E"/>
<path d="M69.5624 130.1L61.82 138.123L42.9839 125.807C42.9839 125.807 46.1475 121.18 52.783 116.994C66.7881 108.157 75.3768 109.284 75.3768 109.284L77.4798 115.575L69.5624 130.1Z" fill="#3B55F1"/>
<path d="M75.3769 109.283C75.3769 109.283 66.7881 108.157 52.783 116.993C46.1475 121.179 42.9839 125.806 42.9839 125.806L61.82 138.122L69.5624 130.1" stroke="#12120E" stroke-miterlimit="10" stroke-linecap="round" stroke-linejoin="round"/>
<path d="M46.3484 122.018L65.282 134.535" stroke="#12120E" stroke-miterlimit="10" stroke-linecap="round" stroke-linejoin="round"/>
<path d="M70.9724 109.525L78.7247 124.729L83.7963 112.259C83.7963 112.259 82.3349 110.03 78.5485 109.525C74.7627 109.019 73.364 109.057 70.9724 109.525Z" fill="#3B55F1" stroke="#12120E" stroke-miterlimit="10" stroke-linecap="round" stroke-linejoin="round"/>
<path d="M78.1526 118.683L82.0976 110.751C81.2667 110.234 80.1075 109.733 78.5486 109.525C76.097 109.197 74.6471 109.099 73.2798 109.197L78.1526 118.683Z" fill="#87524E" stroke="#12120E" stroke-miterlimit="10" stroke-linecap="round" stroke-linejoin="round"/>
<path d="M120.398 116.931C109.531 114.148 104.078 118.938 101.097 120.186C99.7455 120.752 98.2879 120.927 96.9723 120.959C95.6568 120.992 94.2807 120.887 92.8148 120.392C89.7531 119.357 84.0928 114.78 73.3768 118.099C62.6603 121.418 60.5275 130.353 60.8155 142.002C61.1035 153.652 70.1235 171.33 70.1235 171.33L91.2724 170.805L105.127 170.461L126.276 169.936C126.276 169.936 134.412 151.832 134.124 140.182C133.836 128.532 131.265 119.714 120.398 116.931Z" fill="white" stroke="black" stroke-miterlimit="10"/>
<path d="M76.0727 103.718C76.0815 103.562 76.0948 103.406 76.1162 103.248L76.8866 97.656C77.2627 94.9252 79.5282 92.9623 81.9208 93.2935L85.5194 93.792C87.9121 94.1232 89.5619 96.6287 89.1858 99.3589L88.4154 104.951C88.0393 107.682 85.7738 109.645 83.3812 109.314L81.5601 109.061L81.1598 111.262C80.988 112.206 80.0849 112.832 79.1427 112.66L76.2534 112.132C75.3112 111.959 74.6867 111.054 74.8585 110.11C74.8585 110.11 76.0116 103.878 76.0727 103.718Z" fill="#87524E"/>
<path d="M76.9289 100.505C76.9289 100.505 78.392 95.9061 78.5154 96.6326C78.691 97.6687 77.8964 103.16 78.8937 103.79C80.2131 104.625 81.0639 102.282 83.9119 102.578C86.7605 102.873 88.5337 104.342 88.5942 105.522C88.6317 106.251 88.7104 108.273 86.1823 109.364C84.0215 110.296 81.1569 109.518 81.1569 109.518C81.1569 109.518 78.4713 108.807 77.5264 106.985C76.5429 105.089 76.9289 100.505 76.9289 100.505Z" fill="#12120E"/>
<path d="M81.7324 100.189C81.6707 100.638 81.9835 101.052 82.4317 101.114C82.88 101.176 83.293 100.863 83.3552 100.413C83.4169 99.9644 83.1041 99.5499 82.6558 99.4875C82.2076 99.4257 81.7946 99.7398 81.7324 100.189Z" fill="#020202"/>
<path d="M87.0594 100.805C87.0065 101.188 87.2736 101.541 87.6563 101.594C88.039 101.647 88.3915 101.38 88.4443 100.996C88.4972 100.612 88.2301 100.259 87.8474 100.206C87.4652 100.154 87.1123 100.421 87.0594 100.805Z" fill="#020202"/>
<path d="M85.8265 104.024C85.8265 104.024 85.2549 105.159 84.3815 105.121C83.5082 105.084 82.9647 104.033 83.0214 103.279L85.8265 104.024Z" fill="white"/>
<path d="M85.4824 100.062C85.6372 100.797 85.8745 101.509 86.1845 102.192C86.244 102.089 86.3035 101.985 86.3629 101.881C86.0601 101.869 85.7578 101.856 85.4549 101.843C85.1889 101.832 85.1895 102.246 85.4549 102.257C85.7578 102.27 86.0606 102.283 86.3629 102.295C86.5331 102.302 86.6019 102.117 86.5414 101.984C86.2468 101.333 86.0281 100.651 85.8811 99.9523C85.826 99.6912 85.4279 99.8016 85.4824 100.062Z" fill="#010001"/>
<path d="M81.6971 99.3291C81.8347 99.2816 81.9746 99.2413 82.1167 99.2093C82.1861 99.1938 82.2565 99.1795 82.327 99.1679C82.3617 99.1618 82.3975 99.1546 82.4328 99.1513C82.381 99.1557 82.4311 99.1513 82.4432 99.1502C82.4652 99.1474 82.4867 99.1452 82.5087 99.1425C82.5649 99.1364 82.6134 99.1237 82.6547 99.0818C82.6905 99.0459 82.7175 98.9868 82.7152 98.9355C82.7108 98.8334 82.6238 98.7158 82.5087 98.7285C82.1949 98.7627 81.8859 98.8267 81.5869 98.93C81.4851 98.9653 81.4069 99.0735 81.4427 99.1844C81.4762 99.286 81.588 99.3671 81.6971 99.3291Z" fill="#010001"/>
<path d="M87.4736 99.7745C87.7544 99.828 88.032 99.8998 88.3035 99.9887C88.4064 100.022 88.5336 99.9495 88.5573 99.844C88.5832 99.7303 88.5232 99.6255 88.413 99.5896C88.141 99.5007 87.864 99.4289 87.5826 99.3754C87.4769 99.3555 87.3547 99.4046 87.3288 99.52C87.3062 99.6216 87.3602 99.753 87.4736 99.7745Z" fill="#010001"/>
<path d="M77.3084 101.569L78.5761 97.2812C78.5761 97.2812 90.8873 102.004 92.7767 95.1151C93.9771 90.7394 88.7777 87.8033 84.2633 89.451C84.2633 89.451 76.3971 87.6029 73.0375 92.0637C69.6778 96.5244 71.3265 100.643 75.5656 106.319L76.1933 103.009L77.3084 101.569Z" fill="#12120E"/>
<path d="M71.9075 101.194C71.7396 102.65 72.7902 103.969 74.255 104.139C75.7198 104.309 77.043 103.266 77.2115 101.81C77.3801 100.354 76.3288 99.0354 74.8646 98.8654C73.3993 98.6954 72.0755 99.7381 71.9075 101.194Z" fill="#87524E"/>
<path d="M76.1273 102.075C76.2478 101.407 76.0331 100.635 75.4268 100.273C75.1168 100.088 74.75 100.026 74.3943 100.022C74.1283 100.018 74.1283 100.432 74.3943 100.436C74.5667 100.438 74.6862 100.447 74.842 100.484C74.8993 100.497 74.9565 100.514 75.0121 100.533C75.0237 100.537 75.1058 100.569 75.0656 100.552C75.0975 100.566 75.1294 100.582 75.1603 100.598C75.2093 100.623 75.255 100.653 75.3007 100.684C75.3095 100.69 75.3178 100.696 75.3266 100.702C75.2847 100.672 75.3266 100.702 75.3337 100.709C75.353 100.726 75.3723 100.742 75.3905 100.76C75.4263 100.794 75.4576 100.832 75.4907 100.868C75.5226 100.903 75.4714 100.841 75.4896 100.866C75.4967 100.875 75.5034 100.885 75.5105 100.895C75.5265 100.918 75.5419 100.941 75.5562 100.965C75.5777 101.001 75.597 101.037 75.6151 101.074C75.6245 101.093 75.6465 101.148 75.6272 101.098C75.6372 101.123 75.6465 101.147 75.6553 101.173C75.6834 101.253 75.7043 101.335 75.7198 101.418C75.7236 101.438 75.7264 101.458 75.7297 101.477C75.739 101.536 75.7264 101.435 75.7313 101.492C75.7352 101.532 75.739 101.572 75.7412 101.613C75.7445 101.677 75.7451 101.741 75.7429 101.805C75.7412 101.857 75.7363 101.908 75.7313 101.96C75.7253 102.019 75.7401 101.904 75.7324 101.95C75.7319 101.955 75.7308 101.96 75.7297 101.966C75.7098 102.076 75.7594 102.189 75.8739 102.22C75.9736 102.247 76.1074 102.186 76.1273 102.075Z" fill="#010001"/>
<path d="M76.6781 159.305C76.1792 158.805 73.4897 156.532 73.4897 156.532C73.4897 156.532 76.5894 157.956 77.2618 157.242C77.7392 156.735 77.7679 155.819 75.0277 154.238C75.0277 154.238 68.3471 150.211 67.7953 149.755C60.9698 143.546 56.3866 138.495 55.7412 137.333L50.1861 136.938L41.7686 130.915C38.6336 137.772 42.7141 143.396 45.18 146.176C47.5473 148.846 54.7269 153.554 59.1818 156.356C59.1818 156.356 71.0167 166.218 72.563 166.631C74.2601 167.083 74.0024 165.572 73.1533 164.678C73.7403 165.111 74.6885 165.668 75.1489 165.141C75.9292 164.248 74.6274 163.283 73.7733 162.681C73.7733 162.681 75.5443 163.935 76.2293 163.343C77.1979 162.505 75.6159 161.275 74.9396 160.849C74.9396 160.849 76.5553 161.885 77.1996 161.416C78.0498 160.796 77.177 159.805 76.6781 159.305Z" fill="#87524E"/>
<path d="M53.5435 135.291L58.3458 140.474" stroke="#12120E" stroke-miterlimit="10" stroke-linecap="round" stroke-linejoin="round"/>
<path d="M73.1063 164.457L69.5623 161.977" stroke="#12120E" stroke-miterlimit="10" stroke-linecap="round"/>
<path d="M74.2177 163.139L70.4258 160.345" stroke="#12120E" stroke-miterlimit="10" stroke-linecap="round"/>
<path d="M75.4494 161.203C75.358 161.207 71.6741 158.697 71.6741 158.697" stroke="#12120E" stroke-miterlimit="10" stroke-linecap="round"/>
<path d="M125.981 120.796C126.687 120.858 127.319 120.21 127.395 119.348C127.47 118.486 126.959 117.737 126.254 117.675C125.549 117.614 124.916 118.262 124.84 119.124C124.765 119.985 125.276 120.734 125.981 120.796Z" fill="#87524E"/>
<path d="M127.941 122.306C128.562 122.36 129.106 121.943 129.156 121.374C129.205 120.806 128.742 120.3 128.12 120.246C127.499 120.191 126.955 120.608 126.905 121.177C126.856 121.746 127.319 122.251 127.941 122.306Z" fill="#87524E"/>
<path d="M123.552 119.23C124.418 119.306 125.182 118.663 125.258 117.795C125.334 116.927 124.693 116.161 123.827 116.085C122.96 116.009 122.197 116.651 122.121 117.52C122.045 118.388 122.685 119.154 123.552 119.23Z" fill="#87524E"/>
<path d="M120.886 117.812C121.618 117.877 122.264 117.334 122.328 116.6C122.392 115.865 121.851 115.218 121.118 115.154C120.386 115.09 119.74 115.632 119.676 116.367C119.612 117.101 120.154 117.748 120.886 117.812Z" fill="#87524E"/>
<path d="M120.085 117.54C120.085 117.54 121.545 118.198 122.235 116.727" stroke="#0F110E" stroke-miterlimit="10" stroke-linecap="round" stroke-linejoin="round"/>
<path d="M122.068 117.021C122.068 117.021 121.769 118.178 122.685 118.872C123.6 119.565 124.839 119.043 125.144 118.26" stroke="#0F110E" stroke-miterlimit="10" stroke-linecap="round" stroke-linejoin="round"/>
<path d="M124.905 118.668C124.905 118.668 124.573 120.03 125.429 120.585C126.285 121.14 127.299 120.562 127.401 119.196" stroke="#0F110E" stroke-miterlimit="10" stroke-linecap="round" stroke-linejoin="round"/>
<path d="M326.642 227.159L322.73 243.145L333.106 244.099L336.746 228.366L326.642 227.159Z" fill="#FCD7C8"/>
<path d="M320.608 239.994L336.993 240.979L335.002 252.682L307.07 252.544L317.711 246.528L320.608 239.994Z" fill="black"/>
<path d="M355.644 227.473L355.487 243.933L365.806 242.48L365.756 226.329L355.644 227.473Z" fill="#FCD7C8"/>
<path d="M352.293 240.552L368.25 240.908L369.453 252.682L341.521 252.544L352.162 246.528L352.293 240.552Z" fill="black"/>
<path d="M350.498 169.347L340.036 232.898L318.131 231.13L333.212 155.292H353.341L350.498 169.347Z" fill="#3B55F1"/>
<path d="M350.413 169.811L340.036 232.898L318.131 231.13" stroke="#010001" stroke-miterlimit="10" stroke-linecap="round"/>
<path d="M343.858 167.232L347.27 167.528L349.295 194.834" stroke="#3A4A36" stroke-width="0.25" stroke-miterlimit="10"/>
<path d="M343.858 167.232L347.27 167.528L350.413 231.841L373.132 231.528L363.636 160.709L362.617 154.012L339.255 147.614L343.858 167.232Z" fill="#3B55F1"/>
<path d="M343.858 167.232L347.27 167.528L350.413 231.841L373.132 231.528" stroke="#010001" stroke-miterlimit="10" stroke-linecap="round"/>
<path d="M360.921 114.148C352.34 107.871 348.161 108.933 348.161 108.933C342.76 108.178 333.804 115.985 332.478 116.981C331.151 117.979 325.712 129.865 324.344 135.14C322.976 140.414 327.328 147.614 327.328 147.614C327.328 147.614 369.739 148.815 371.231 145.896C372.724 142.977 369.398 120.349 360.921 114.148Z" fill="white"/>
<path d="M363.294 161.394C363.941 157.662 363.66 151.764 363.66 147.614C363.66 126.897 358.786 109.728 348.031 109.235C341.449 108.934 332.776 125.835 331.557 146.484C331.313 150.626 330.662 157.426 331.309 161.157L363.294 161.394Z" fill="#F2B4C9"/>
<path d="M332.655 128.792C326.3 148.867 317.364 210.473 317.364 210.473L340.595 212.951L343.174 121.508L343.871 109.836C343.871 109.836 337.196 114.448 332.655 128.792Z" fill="white"/>
<path d="M342.626 111.526C341.89 113.592 339.159 121.527 339.159 121.527L340.853 121.921V121.997L338.237 123.8L341.506 154.308" stroke="#12120E" stroke-miterlimit="10" stroke-linecap="round"/>
<path d="M327.329 164.566L337.196 163.734" stroke="#12120E" stroke-miterlimit="10" stroke-linecap="round"/>
<path d="M332.655 128.792C326.3 148.867 317.364 210.473 317.364 210.473L340.595 212.951" stroke="#12120E" stroke-miterlimit="10" stroke-linecap="round"/>
<path d="M364.072 128.792C370.427 148.867 380.27 211.996 380.27 211.996L356.132 212.952L353.553 121.508L352.856 109.836C352.856 109.836 359.531 114.448 364.072 128.792Z" fill="white"/>
<path d="M354.101 111.526C354.837 113.592 357.568 121.527 357.568 121.527L355.874 121.921V121.997L358.49 123.8L355.759 156.325" stroke="#12120E" stroke-miterlimit="10" stroke-linecap="round"/>
<path d="M369.398 164.565L359.531 163.734" stroke="#12120E" stroke-miterlimit="10" stroke-linecap="round"/>
<path d="M364.072 128.792C370.428 148.867 380.27 211.996 380.27 211.996L356.132 212.952" stroke="#12120E" stroke-miterlimit="10" stroke-linecap="round"/>
<path d="M332.262 139.506C332.262 139.506 336.594 132.978 337.901 132.918C339.206 132.858 337.796 135.265 337.796 135.265C337.796 135.265 341.672 133.576 343.145 133.778C344.617 133.98 345.098 141.397 345.098 141.397C345.098 141.397 337.878 144.163 334.543 143.953C331.833 143.783 332.262 139.506 332.262 139.506Z" fill="#FCD7C8"/>
<path d="M337.796 135.265L334.605 130.271L336.847 128.792L339.662 134.536L337.796 135.265Z" fill="#738BEF"/>
<path d="M328.484 137.562L329.162 130.797L339.161 118.437L340.147 112.012C333.653 115.431 323.862 122.411 318.513 135.139C310.042 155.298 321.111 155.536 323.598 155.292C326.086 155.048 338.377 148.549 338.377 148.549L334.273 135.139L328.484 137.562Z" fill="white"/>
<path d="M321.235 140.597L334.272 135.14L338.376 148.549C338.376 148.549 326.086 155.049 323.598 155.293C321.11 155.537 310.041 155.299 318.513 135.14C318.513 135.14 321.22 127.008 329.158 119.841C337.097 112.674 343.87 109.836 343.87 109.836" stroke="#12120E" stroke-miterlimit="10" stroke-linecap="round"/>
<path d="M358.019 156.938H343.972C341.745 156.938 339.94 155.128 339.94 152.896V131.642C339.94 129.41 341.745 127.6 343.972 127.6H358.019C360.246 127.6 362.052 129.41 362.052 131.642V152.896C362.052 155.128 360.247 156.938 358.019 156.938Z" fill="#12120E"/>
<path d="M354.956 129.932H347.035C346.203 129.932 345.528 129.255 345.528 128.421V128.288C345.528 127.453 346.203 126.777 347.035 126.777H354.956C355.788 126.777 356.463 127.453 356.463 128.288V128.421C356.463 129.255 355.788 129.932 354.956 129.932Z" fill="#738BEF"/>
<path d="M350.996 124.523C349.653 124.523 348.565 125.614 348.565 126.96C348.565 128.306 349.653 129.397 350.996 129.397C352.338 129.397 353.427 128.306 353.427 126.96C353.427 125.614 352.338 124.523 350.996 124.523ZM350.996 128.291C350.263 128.291 349.668 127.695 349.668 126.96C349.668 126.225 350.262 125.629 350.996 125.629C351.729 125.629 352.324 126.225 352.324 126.96C352.323 127.695 351.729 128.291 350.996 128.291Z" fill="#738BEF"/>
<path d="M362.052 138.523V140.683C362.052 140.683 357.589 138.369 356.586 138.531C355.584 138.693 355.189 139.512 356.026 140.297C356.026 140.297 354.788 139.973 354.435 140.775C354.082 141.577 354.708 142.256 355.51 142.699C355.51 142.699 354.381 142.301 354.212 143.049C354.043 143.796 356.03 144.976 356.03 144.976C356.03 144.976 355.126 144.284 354.823 144.709C354.52 145.134 354.932 146.273 358.137 147.779C361.342 149.284 363.936 150.312 363.936 150.312L368.229 143.35L362.052 138.523Z" fill="#FCD7C8"/>
<path d="M355.493 144.798L359.093 146.623" stroke="#12120E" stroke-miterlimit="10" stroke-linecap="round"/>
<path d="M354.762 142.286L359.956 145.155" stroke="#12120E" stroke-miterlimit="10" stroke-linecap="round"/>
<path d="M355.844 140.165L361.312 143.282" stroke="#12120E" stroke-miterlimit="10" stroke-linecap="round"/>
<path d="M378.428 133.756C372.719 122.275 362.867 114.157 356.132 111.802L357.59 114.01C360.172 116.151 362.752 118.79 364.225 121.678C367.359 127.82 369.798 136.493 370.5 139.117C369.142 138.758 368.157 138.523 368.157 138.523L363.294 152.431C363.294 152.431 369.622 155.418 372.226 156.326C374.527 157.128 380.073 157.78 382.325 153.877C384.2 150.629 383.238 143.429 378.428 133.756Z" fill="white"/>
<path d="M376.642 141.023C373.655 139.83 368.157 138.523 368.157 138.523L363.294 152.431C363.294 152.431 369.637 155.376 372.226 156.326C380 159.177 389.016 155.049 378.428 133.756C378.428 133.756 374.265 124.904 364.941 116.994C357.708 110.859 353.847 109.351 352.479 108.983" stroke="#12120E" stroke-miterlimit="10" stroke-linecap="round"/>
<path d="M358.67 98.9044C360.024 93.2067 356.514 87.4877 350.83 86.1306C345.146 84.7736 339.441 88.2923 338.087 93.99C336.733 99.6877 340.243 105.407 345.927 106.764C351.611 108.121 357.316 104.602 358.67 98.9044Z" fill="#12120E"/>
<path d="M357.794 87.4313C360.917 87.4313 363.448 84.8941 363.448 81.7644C363.448 78.6347 360.917 76.0976 357.794 76.0976C354.672 76.0976 352.141 78.6347 352.141 81.7644C352.141 84.8941 354.672 87.4313 357.794 87.4313Z" fill="#12120E"/>
<path d="M352.856 110.863C352.856 112.521 350.844 113.865 348.363 113.865C345.882 113.865 343.871 112.521 343.871 110.863C343.871 109.205 345.882 107.861 348.363 107.861C350.844 107.861 352.856 109.205 352.856 110.863Z" fill="#EE80A6"/>
<path d="M347.99 91.4454L344.4 91.2627C342.013 91.1413 339.947 93.2709 339.81 95.995L339.527 101.574C339.39 104.298 341.229 106.627 343.617 106.748L344.845 106.81V108.71C344.845 110.286 346.119 111.563 347.691 111.563H348.792C350.364 111.563 351.638 110.286 351.638 108.71V106.147L351.788 103.177C351.797 103.001 351.783 102.829 351.753 102.663C351.774 102.51 351.789 102.356 351.798 102.198L352.08 96.6193C352.217 93.8952 350.378 91.5669 347.99 91.4454Z" fill="#FCD7C8"/>
<path d="M346.902 98.1832C346.879 98.6314 346.499 98.9758 346.052 98.9532C345.605 98.9306 345.261 98.5491 345.284 98.1009C345.306 97.6527 345.687 97.3083 346.134 97.3309C346.581 97.3535 346.924 97.7349 346.902 98.1832Z" fill="#12120E"/>
<path d="M341.609 97.7951C341.59 98.1776 341.265 98.4718 340.884 98.4525C340.502 98.4332 340.208 98.1075 340.228 97.725C340.247 97.3424 340.572 97.0482 340.953 97.0675C341.335 97.0869 341.629 97.4125 341.609 97.7951Z" fill="#12120E"/>
<path d="M342.214 101.153C342.214 101.153 342.56 102.362 343.416 102.488C344.272 102.613 344.994 101.692 345.078 100.949" stroke="black" stroke-width="0.75" stroke-miterlimit="10" stroke-linecap="round" stroke-linejoin="round"/>
<path d="M349.704 101.31C349.647 102.424 348.701 103.28 347.59 103.224C346.478 103.168 345.624 102.219 345.68 101.105C345.736 99.991 346.683 99.1342 347.793 99.1906C348.905 99.2474 349.76 100.196 349.704 101.31Z" fill="#FFA6A6"/>
<path d="M339.994 99.4616C339.871 99.4555 339.752 99.4655 339.636 99.487L339.531 101.579C339.515 101.891 339.511 102.194 339.559 102.492C339.642 102.51 339.75 102.527 339.838 102.532C340.684 102.575 341.404 101.922 341.447 101.075C341.49 100.227 340.839 99.5047 339.994 99.4616Z" fill="#FFA6A6"/>
<path d="M356.406 100.715C356.327 102.285 354.983 103.492 353.404 103.411C351.825 103.331 350.61 101.993 350.69 100.424C350.769 98.8544 352.113 97.6466 353.692 97.7272C355.271 97.8078 356.486 99.1453 356.406 100.715Z" fill="#FCD7C8"/>
<path d="M351.983 100.866C351.983 100.866 351.955 98.9289 353.922 99.2441" stroke="#12120E" stroke-miterlimit="10" stroke-linecap="round"/>
<path d="M340.445 96.4007C340.776 96.2837 341.119 96.2031 341.467 96.1606" stroke="#12120E" stroke-miterlimit="10" stroke-linecap="round"/>
<path d="M345.572 96.0248C346.26 96.0927 346.94 96.2334 347.6 96.4437" stroke="#12120E" stroke-miterlimit="10" stroke-linecap="round"/>
<path d="M343.402 97.1801C343.134 97.8795 342.82 98.5618 342.465 99.2209C342.744 99.3136 343.217 99.4141 343.575 99.4748" stroke="#12120E" stroke-width="0.75" stroke-miterlimit="10" stroke-linecap="round" stroke-linejoin="round"/>
<path d="M352.191 91.255C350.297 89.084 340.63 86.383 339.151 95.915C339.151 95.915 342.108 95.0058 343.852 92.1851C343.852 92.1851 344.158 94.3263 349.384 96.6856C349.845 96.8937 350.262 97.0559 350.644 97.1823L350.906 99.4748L352.51 97.5086C355.36 97.3645 353.7 92.9855 352.191 91.255Z" fill="#12120E"/>
</svg>
