<svg width="20" height="18" viewBox="0 0 20 18" fill="none" xmlns="http://www.w3.org/2000/svg">
<path d="M17.9442 4.92615C17.9569 5.10381 17.9569 5.2815 17.9569 5.45916C17.9569 10.8779 13.8326 17.1216 6.29444 17.1216C3.97209 17.1216 1.81473 16.449 0 15.2815C0.329962 15.3196 0.64719 15.3323 0.989848 15.3323C2.90607 15.3323 4.67006 14.6851 6.0787 13.581C4.27666 13.5429 2.7665 12.3627 2.24618 10.7384C2.50001 10.7764 2.7538 10.8018 3.02032 10.8018C3.38833 10.8018 3.75638 10.751 4.099 10.6622C2.22083 10.2815 0.812152 8.63175 0.812152 6.63936V6.58862C1.35782 6.89319 1.99239 7.08354 2.66493 7.10889C1.56087 6.37283 0.837542 5.1165 0.837542 3.69517C0.837542 2.93376 1.04055 2.23579 1.3959 1.62664C3.41369 4.11396 6.4467 5.7383 9.8477 5.916C9.78426 5.61143 9.74617 5.2942 9.74617 4.97693C9.74617 2.71802 11.5736 0.87793 13.8452 0.87793C15.0254 0.87793 16.0914 1.37285 16.8401 2.17235C17.7665 1.99469 18.6548 1.65203 19.4416 1.1825C19.137 2.1343 18.4898 2.9338 17.6396 3.44138C18.4645 3.35259 19.264 3.12411 20 2.80688C19.4417 3.61903 18.7437 4.34236 17.9442 4.92615Z" fill="white"/>
</svg>
